<svg height="511pt" viewBox="0 0 511.92131 511" width="511pt" xmlns="http://www.w3.org/2000/svg"><path d="m330.738281 97.03125-119.636719 69.289062 23.550782-157.269531c4.890625-.328125 9.683594 1.476563 13.144531 4.953125zm0 0" fill="#ff9601"/><path d="m234.652344 9.050781-23.550782 157.269531-81.578124 47.277344c-1.910157 1.089844-3.589844 2.539063-4.949219 4.265625l-116.054688 17.40625c.210938-4.160156 1.976563-8.089843 4.949219-11.007812l210.175781-210.257813c2.917969-2.976562 6.847657-4.742187 11.007813-4.953125zm0 0" fill="#fcbf08"/><path d="m170.570312 318.558594v44.03125l-9.386718 9.386718c-2.859375 2.882813-6.699219 4.585938-10.753906 4.777344-4.960938.519532-9.886719-1.238281-13.398438-4.777344l-123.5625-123.5625c-3.519531-3.429687-5.332031-8.246093-4.949219-13.144531l116.054688-17.40625c-1.210938 1.515625-2.113281 3.253907-2.644531 5.121094-1.640626 4.605469-1.140626 9.707031 1.363281 13.910156l39.851562 68.863281zm0 0" fill="#ff9601"/><path d="m503.367188 306.609375v179.199219c0 4.921875-2.148438 9.597656-5.886719 12.800781l-18.515625-13.054687-121.859375-86.101563 121.859375-91.5625 18.601562-13.996094c3.695313 3.191407 5.816406 7.832031 5.800782 12.714844zm0 0" fill="#f37c00"/><path d="m478.964844 307.890625v177.664063l-121.859375-86.101563zm0 0" fill="#ff9601"/><path d="m497.480469 498.609375c-3.058594 2.777344-7.046875 4.300781-11.179688 4.265625h-298.664062c-4.113281.027344-8.09375-1.460938-11.179688-4.179688l140.289063-99.242187 15.957031 11.945313c2.5 1.878906 5.945313 1.878906 8.445313 0l15.957031-11.945313zm0 0" fill="#f37c00"/><path d="m316.746094 399.453125-140.289063 99.242187c-3.726562-3.25-5.871093-7.941406-5.886719-12.886718v-179.199219c-.015624-4.882813 2.105469-9.523437 5.800782-12.714844zm0 0" fill="#ff9601"/><path d="m497.566406 293.894531-140.460937 105.558594-15.957031 11.945313c-2.5 1.878906-5.945313 1.878906-8.445313 0l-15.957031-11.945313-140.375-105.558594c3.074218-2.816406 7.09375-4.371093 11.265625-4.351562h298.664062c4.167969-.019531 8.191407 1.535156 11.265625 4.351562zm0 0" fill="#fcbf08"/><path d="m502.429688 239.195312-19.625-1.789062-151.554688-13.65625 60.503906-142.675781 8.105469-19.113281c4.816406.894531 8.996094 3.859374 11.433594 8.105468l89.773437 155.136719c2.464844 4.242187 2.964844 9.351563 1.363282 13.992187zm0 0" fill="#00695c"/><path d="m482.804688 237.40625-151.554688-13.65625 60.503906-142.675781c.960938.96875 1.792969 2.058593 2.472656 3.242187zm0 0" fill="#00818d"/><path d="m502.429688 239.195312c-1.28125 3.941407-3.992188 7.257813-7.59375 9.300782l-70.914063 41.046875h-148.480469l20.910156-45.566407 19.710938 2.304688c3.125.386719 6.128906-1.359375 7.339844-4.269531l7.847656-18.261719zm0 0" fill="#00695c"/><path d="m296.351562 243.976562-20.910156 45.566407h-87.804687c-4.171875-.019531-8.191407 1.535156-11.265625 4.351562-3.695313 3.191407-5.816406 7.832031-5.800782 12.714844v11.949219l-7.425781-12.800782-39.851562-68.863281c-2.503907-4.203125-3.003907-9.304687-1.363281-13.910156zm0 0" fill="#00818d"/><path d="m399.859375 61.960938-68.609375 161.789062-7.847656 18.261719c-1.210938 2.910156-4.214844 4.65625-7.339844 4.269531l-19.710938-2.304688-174.421874-20.992187c.53125-1.867187 1.433593-3.605469 2.644531-5.121094 1.359375-1.726562 3.039062-3.175781 4.949219-4.265625l81.578124-47.277344 119.636719-69.289062 57.175781-33.109375c3.585938-2.148437 7.859376-2.847656 11.945313-1.960937zm0 0" fill="#00bad2"/><path d="m89.75 198.289062c3.332031 3.332032 8.734375 3.332032 12.066406 0l36.027344-36.027343c3.234375-3.351563 3.1875-8.671875-.105469-11.964844-3.289062-3.289063-8.613281-3.335937-11.960937-.101563l-36.027344 36.027344c-3.332031 3.332032-3.332031 8.734375 0 12.066406zm0 0"/><path d="m153.417969 143.144531c2.261719.003907 4.429687-.894531 6.03125-2.492187l7.210937-7.199219c3.335938-3.332031 3.339844-8.738281.007813-12.074219-3.332031-3.339844-8.738281-3.34375-12.074219-.011718l-7.210938 7.210937c-2.4375 2.441406-3.167968 6.109375-1.847656 9.300781 1.320313 3.1875 4.429688 5.265625 7.882813 5.265625zm0 0"/><path d="m486.300781 281.011719h-30.597656l43.398437-25.105469c5.886719-3.394531 10.183594-8.988281 11.945313-15.550781s.839844-13.554688-2.558594-19.4375l-89.804687-155.117188c-7.171875-12.175781-22.816406-16.289062-35.046875-9.21875l-51.5 29.78125-78.308594-78.417969c-10.011719-9.980468-26.203125-9.980468-36.214844 0l-210.183593 210.292969c-4.433594 4.359375-7.078126 10.21875-7.4179692 16.425781-.0507813.625.0703124 1.238282.0703124 1.851563-.0546874 6.71875 2.5937498 13.179687 7.3554688 17.921875l123.5625 123.5625c4.601562 4.660156 10.855469 7.320312 17.40625 7.398438.800781 0 1.601562-.042969 2.398438-.128907 3.964843-.203125 7.820312-1.367187 11.230468-3.394531v103.933594c0 14.140625 11.460938 25.601562 25.601563 25.601562h298.664062c14.140625 0 25.601563-11.460937 25.601563-25.601562v-179.199219c0-14.136719-11.460938-25.597656-25.601563-25.597656zm-202.589843-29.953125-13.746094 29.953125h-82.328125c-8.925781.019531-17.1875 4.703125-21.796875 12.347656l-35.140625-60.699219zm194.058593 47.019531-125.75 94.546875-15.050781 11.265625-140.878906-105.8125zm-298.667969 187.730469v-179.148438l123.179688 92.597656-123.078125 87.039063c-.042969-.160156-.074219-.324219-.101563-.488281zm137.523438-75.792969 10.878906 8.117187c2.714844 2.078126 6.042969 3.203126 9.464844 3.199219 3.363281.011719 6.636719-1.089843 9.308594-3.132812l10.933594-8.214844 119.386718 84.359375h-279.21875zm54.921875-10.800781 123.289063-92.605469v179.199219c0 .164062-.085938.300781-.09375.453125zm-82.800781-118.203125 12.800781-27.835938 13.449219 1.570313c.660156.089844 1.328125.136718 1.996094.136718 6.238281 0 11.867187-3.738281 14.285156-9.492187l5.339844-12.578125 145.570312 13.160156-60.550781 35.039063zm204.9375-51.535157c.078125.128907.078125.28125.144531.410157l-150.1875-13.585938 60.253906-141.976562zm-108.859375-153.90625-61.433594 144.851563-7.40625 17.289063-174.832031-20.992188zm-67.960938 19.625-94.71875 54.863282 19.507813-130.101563.109375.078125zm-93.386719-68.921874-20.207031 134.75-77.925781 45.140624c-1.757812 1.027344-3.378906 2.265626-4.832031 3.6875l-94.78125 14.207032zm-68.269531 339.625c-1.503906 1.476562-3.523437 2.3125-5.628906 2.339843-2.398437.246094-4.773437-.613281-6.460937-2.332031l-123.683594-123.59375 93.183594-13.980469c-.058594 4.511719 1.089843 8.957031 3.320312 12.878907l46.097656 79.640624v38.203126zm0 0"/><path d="m268.898438 315.144531c-4.714844 0-8.535157 3.820313-8.535157 8.53125 0 4.714844 3.820313 8.535157 8.535157 8.535157h51.199218c4.714844 0 8.535156-3.820313 8.535156-8.535157 0-4.710937-3.820312-8.53125-8.535156-8.53125zm0 0"/><path d="m350.75 332.210938h10.238281c4.714844 0 8.535157-3.820313 8.535157-8.535157 0-4.710937-3.820313-8.53125-8.535157-8.53125h-10.238281c-4.714844 0-8.535156 3.820313-8.535156 8.53125 0 4.714844 3.820312 8.535157 8.535156 8.535157zm0 0"/><path d="m253.453125 192.324219c1.5-.003907 2.96875-.402344 4.265625-1.152344l44.273438-25.601563c2.738281-1.472656 4.457031-4.320312 4.488281-7.429687s-1.632813-5.992187-4.34375-7.519531c-2.710938-1.523438-6.035157-1.457032-8.679688.179687l-44.269531 25.640625c-3.335938 1.9375-4.960938 5.867188-3.960938 9.59375.996094 3.722656 4.371094 6.316406 8.226563 6.320313zm0 0"/><path d="m210.675781 208.570312c1.132813 1.960938 3 3.390626 5.1875 3.976563 2.1875.582031 4.515625.273437 6.476563-.863281l8.859375-5.117188c3.921875-2.429687 5.207031-7.53125 2.898437-11.527344-2.308594-3.992187-7.371094-5.429687-11.433594-3.246093l-8.855468 5.121093c-1.964844 1.128907-3.394532 2.992188-3.980469 5.179688-.589844 2.1875-.285156 4.515625.847656 6.476562zm0 0"/></svg>