<svg xmlns="http://www.w3.org/2000/svg" viewBox="0 0 921.29 288.73">
    <defs>
        <style>.cls-1{fill:#ffffff;}</style>
    </defs>
    <title>logo Tappan Wit</title>
    <path class="cls-1"
          d="M646.09,434.7c0,9.4.09,18.8-.06,28.19a5.63,5.63,0,0,0,2.69,5.26,39.87,39.87,0,0,0,20.77,6.78c15.74.88,27.34-7.49,31-22.81a72.62,72.62,0,0,0-.06-34.88c-1.87-7.42-5.17-14.09-12-18.44-11.2-7.18-30.72-5.8-40.68,3.08a5.87,5.87,0,0,0-1.6,3.92c-.13,9.63-.07,19.26-.07,28.9m0,56.1v73.83H607.76V365.9h33.9V381a12.65,12.65,0,0,0,1.67-1.29c11.21-13.31,25.78-18,42.74-17,31.23,1.82,46.17,22.31,51.74,43.21,6,22.51,5.61,44.95-3.6,66.61-14,33-48.59,39.48-71.39,30.29a42.75,42.75,0,0,1-16.73-12"
          transform="translate(-134.63 -275.95)"/>
    <path class="cls-1"
          d="M484.2,434.41c0,9.4.11,18.8-.07,28.2a6.08,6.08,0,0,0,3.07,5.76,39.85,39.85,0,0,0,20.49,6.56c15.64.87,27.08-7.33,30.83-22.52a72.76,72.76,0,0,0,.44-33.52c-1.9-8.58-5.53-16.18-13.61-20.88-10.9-6.34-30.15-4.58-39.49,3.92a5.93,5.93,0,0,0-1.6,3.92c-.14,9.52-.07,19-.07,28.55m-.11,57.12v73.15h-38V365.85h33.7v15.32a9.34,9.34,0,0,0,1.4-1c11.35-13.75,26.21-18.53,43.57-17.43,30.13,1.91,45.6,21.65,51.14,42.95,6.6,25.34,6,50.36-7.1,73.77-14.32,25.49-48.58,34.89-73.48,20.52-3.89-2.24-7.24-5.42-11.19-8.44"
          transform="translate(-134.63 -275.95)"/>
    <path class="cls-1"
          d="M849.58,443.27c-9.58,1.23-18.82,2-27.89,3.74a41.69,41.69,0,0,0-14.26,5.5c-6.1,3.88-6.74,10.43-5.31,17,1.33,6.12,5.65,9.19,11.65,10.16,12.86,2.07,24.11-1.76,34.31-9.37a3.48,3.48,0,0,0,1.43-2.23c.1-8.08.06-16.17.06-24.8m-44.82-29.81H769.37c-.81-19.11,8.4-35.15,24.36-43.26,12.2-6.2,25.35-7.77,38.67-7.51a100,100,0,0,1,24,3.11c17.88,4.84,27.57,17.39,30.12,35.5a120.5,120.5,0,0,1,1.18,15.79c.15,17.15.05,34.31.05,51.46,0,7.47,2.71,9.84,10,8.63,2.52-.42,5-1.13,7.78-1.77a11.59,11.59,0,0,1,.4,2.14c0,6.93.1,13.86-.06,20.79,0,1.16-.8,2.93-1.72,3.35-11.62,5.34-23.67,6.67-35.95,2.72-6.85-2.2-10.81-7.21-11.58-14.52-.13-1.24-.32-2.47-.42-3.19-5.45,4-10.61,8.72-16.55,12-17.55,9.78-36.15,10.57-54.7,3.55-14.84-5.61-22.62-20.78-21.56-37.62,1.25-19.76,14.59-30.63,30.73-35,10.46-2.8,21.46-3.68,32.26-5.1,6.63-.87,13.33-1.19,20-1.63,2.26-.15,3.51-.81,3.2-3.35-.67-5.46-.74-11-2-16.37-1.46-6.39-6.07-10.62-12.53-11.3a59.79,59.79,0,0,0-17.74.56c-7.68,1.54-10.48,8-11.81,15.07-.35,1.84-.52,3.7-.82,5.85"
          transform="translate(-134.63 -275.95)"/>
    <path class="cls-1"
          d="M365.8,443.36c-8.36,1-16.19,1.65-23.91,3a69.05,69.05,0,0,0-15.13,4.2c-6.9,2.9-9.89,9.38-8.84,17.07,1,7,5,11,12.88,12.21,12.68,1.88,23.81-2.08,33.8-9.71a3.37,3.37,0,0,0,1.15-2.33c.08-7.95.05-15.9.05-24.39m.55-20.78c-.7-6.42-.93-12.41-2.1-18.22-1.4-7-6.08-11.67-13.15-12.45a54.12,54.12,0,0,0-17.4.62c-8.84,2-11.09,9.57-12.26,17.45-.15,1-.18,2.09-.29,3.42H285.4c0-15.57,4.79-28.87,17.35-38.62,9.4-7.3,20.48-10.26,32.07-11.47,10.9-1.13,21.79-1.2,32.61,1.08,21.31,4.48,33.28,17.16,35.56,38.89,1,9.31.78,18.75.88,28.14.13,12.45,0,24.91,0,37.36,0,7.07,2.92,9.57,10,8.42,2.64-.43,5.22-1.19,8.33-1.91v18.43c0,8,0,8-7.54,10.42a52.1,52.1,0,0,1-23.33,2c-10.35-1.42-18.43-5.78-18.78-20l-.91-.92a8.81,8.81,0,0,1-1.19,2.46c-13,13.44-29,19.72-47.57,18.7a77.45,77.45,0,0,1-20.29-3.6c-13.62-4.59-22.12-17.4-22.9-31.71-1.3-23.88,12.26-36.93,33.05-42,12.57-3.05,25.74-3.63,38.65-5.21,4.65-.57,9.33-.82,15-1.29"
          transform="translate(-134.63 -275.95)"/>
    <path class="cls-1"
          d="M967.91,503.37h-38V365.89h33.57V382c4.81-4,9.19-8.18,14.11-11.59,10.35-7.19,22.28-8.18,34.41-7.67,7.54.32,15,1.41,21.7,5.23,12.31,7,18.11,18.35,20.66,31.63a88.28,88.28,0,0,1,1.5,16.1c.15,28.31.07,56.62.07,84.93,0,.81-.07,1.61-.12,2.65H1017.6v-4c0-24.67.18-49.34-.12-74a82.84,82.84,0,0,0-2.71-18.34c-1.5-6.15-6.19-9.55-12.33-10.65-11.44-2-22.19-.64-31.69,6.73a6.74,6.74,0,0,0-2.89,5.92c.1,30,.06,59.91.06,89.87Z"
          transform="translate(-134.63 -275.95)"/>
    <polygon class="cls-1"
             points="88.97 88.42 88.97 227.38 49.73 227.38 49.73 88.52 0 88.52 0 54.95 138.62 54.95 138.62 88.42 88.97 88.42"/>
    <rect class="cls-1" width="138.62" height="33.47"/>
</svg>